<svg width="105" height="96" viewBox="0 0 105 96" fill="none" xmlns="http://www.w3.org/2000/svg">
<g clip-path="url(#clip0_3_159)">
<path d="M89.2423 9.71106H0.276306V95.7226H89.2423V9.71106Z" stroke="white" stroke-width="2"/>
<path d="M103.609 0.277466H14.6434V86.2891H103.609V0.277466Z" stroke="white" stroke-width="2"/>
<path d="M43.5524 61.6318L37.9426 48.8865H36.8287V61.6318H34.6006V33.6642H36.8287V46.4893H37.9028L43.6321 33.744H46.0988L40.0114 47.7279L46.0192 61.6318H43.5524ZM58.9755 47.1286L55.8324 61.5919H52.4108L48.3525 33.6642H50.4215L54.0817 59.0348H54.4L57.6228 44.5715H60.6464L63.8293 59.0348H64.1476L67.8079 33.6642H69.8769L65.8187 61.5919H62.3971L59.2938 47.1286H58.9755Z" fill="white"/>
</g>
<defs>
<clipPath id="clip0_3_159">
<rect width="105" height="96" fill="white"/>
</clipPath>
</defs>
</svg>
