<?xml version="1.0" standalone="no"?>
<!DOCTYPE svg PUBLIC "-//W3C//DTD SVG 20010904//EN"
 "http://www.w3.org/TR/2001/REC-SVG-20010904/DTD/svg10.dtd">
<svg version="1.0" xmlns="http://www.w3.org/2000/svg"
 width="840.000000pt" height="840.000000pt" viewBox="0 0 840.000000 840.000000"
 preserveAspectRatio="xMidYMid meet">
<metadata>
Created by potrace 1.14, written by Peter Selinger 2001-2017
</metadata>
<g transform="translate(0.000000,840.000000) scale(0.100000,-0.100000)"
fill="#000000" stroke="none">
<path d="M1090 7692 l0 -348 -527 0 c-291 1 -536 0 -545 -3 -17 -3 -18 -178
-18 -3492 l0 -3489 3610 0 3610 0 0 348 0 348 573 0 572 0 3 3492 2 3492
-3640 0 -3640 0 0 -348z m7117 -3115 c1 -2539 -2 -3357 -10 -3358 -7 -1 -229
-2 -494 -2 l-483 -2 0 3061 c0 2441 -3 3063 -12 3066 -7 2 -1350 3 -2985 2
l-2972 0 1 296 1 297 3476 -1 3476 -1 2 -3358z m-7122 2601 c3 -3 5 -1380 5
-3062 0 -2417 3 -3056 13 -3057 6 0 1349 -2 2982 -2 l2970 -2 0 -295 0 -295
-3475 0 -3475 0 -1 3350 c-2 2664 1 3352 11 3360 12 10 960 13 970 3z m5962 3
c9 -1 11 -674 10 -2983 l-2 -2982 -2900 0 -2900 0 -2 2975 c-1 1636 -1 2979 1
2984 2 7 974 9 2892 8 1589 0 2894 -2 2901 -2z"/>
<path d="M2769 5323 c0 -15 -1 -518 -1 -1118 l-1 -1090 90 -3 89 -3 -1 498 c0
274 1 504 3 511 3 7 20 12 42 12 21 0 42 -6 47 -12 5 -7 37 -76 71 -153 33
-77 71 -162 83 -190 13 -27 24 -52 24 -55 1 -3 12 -30 26 -60 14 -30 74 -166
134 -302 l108 -248 99 0 c54 0 98 2 98 5 0 2 -12 30 -26 62 -31 68 -36 79
-104 238 -28 66 -59 138 -69 160 -10 22 -31 69 -46 105 -15 36 -31 73 -36 82
-5 10 -9 25 -9 33 0 8 -4 15 -10 15 -5 0 -10 4 -10 10 0 5 -36 94 -81 197 -44
104 -81 195 -82 203 0 13 43 118 113 275 10 22 57 130 105 240 48 110 98 224
111 253 13 29 24 54 24 56 0 2 12 30 27 62 14 33 27 64 29 69 1 6 18 45 38 88
l36 78 -101 -3 -101 -3 -62 -136 c-33 -75 -70 -156 -80 -180 -11 -24 -31 -69
-45 -99 -14 -30 -26 -57 -26 -60 -1 -3 -14 -32 -29 -65 -66 -139 -89 -196 -86
-204 1 -2 -2 -7 -7 -10 -4 -3 -33 -62 -64 -131 l-56 -125 -41 -1 c-33 -2 -42
2 -43 15 -1 9 -2 239 -3 511 l-1 495 -87 3 -88 3 -1 -28z"/>
<path d="M3873 5308 c4 -24 9 -61 12 -83 3 -23 7 -50 9 -62 5 -23 16 -93 21
-133 7 -55 17 -126 21 -150 2 -14 7 -47 10 -75 3 -27 7 -57 9 -65 2 -8 7 -37
10 -65 4 -27 8 -57 10 -65 2 -8 7 -41 10 -73 4 -32 8 -68 11 -80 2 -12 7 -40
10 -62 3 -22 9 -65 15 -95 5 -30 11 -75 14 -100 3 -25 8 -57 10 -71 3 -15 7
-44 10 -65 3 -22 7 -50 10 -64 3 -14 7 -45 10 -70 2 -25 7 -56 9 -70 3 -14 7
-45 10 -70 4 -25 9 -58 11 -74 3 -15 8 -49 10 -75 2 -25 5 -46 6 -46 1 0 3 -9
4 -20 1 -11 7 -49 13 -85 6 -36 14 -89 17 -119 4 -30 8 -61 10 -70 1 -9 6 -41
11 -71 4 -30 9 -58 10 -62 1 -5 2 -19 3 -33 l1 -25 139 2 139 1 21 101 c12 56
23 110 26 121 2 11 13 63 25 115 12 52 23 104 26 115 2 11 9 45 15 75 7 30 13
64 15 75 2 11 10 47 18 80 8 33 17 71 20 85 8 44 76 354 82 373 6 19 36 24 33
5 -2 -11 3 -38 17 -100 1 -5 2 -9 4 -10 3 -5 11 -42 15 -77 2 -18 9 -47 14
-65 5 -17 12 -44 15 -61 2 -16 16 -83 30 -147 14 -64 27 -127 30 -140 5 -26
38 -177 67 -308 11 -47 21 -98 24 -115 2 -16 9 -51 15 -76 l11 -47 135 0 c74
0 136 3 138 7 2 3 7 29 11 56 4 28 9 59 10 70 2 11 6 40 9 65 3 25 8 59 11 75
12 69 15 92 20 135 3 25 10 72 15 105 5 33 12 80 15 105 3 25 8 56 10 70 3 14
8 45 11 70 2 25 7 56 10 70 3 14 7 39 9 55 5 41 14 103 21 145 7 48 14 98 19
140 2 19 4 35 5 35 1 0 3 14 5 30 2 17 7 48 10 70 3 22 8 56 11 75 5 45 13 97
19 135 3 17 8 48 10 70 3 22 7 49 9 60 2 11 7 43 10 70 4 28 9 61 12 75 2 14
7 43 9 65 3 22 10 69 16 105 6 36 12 81 14 100 5 37 9 69 19 137 l7 42 -86 -1
c-80 0 -85 -2 -86 -22 -2 -36 -6 -70 -12 -101 -4 -16 -9 -57 -13 -90 -3 -33
-8 -62 -9 -65 -2 -3 -6 -30 -10 -60 -3 -30 -8 -66 -10 -80 -3 -14 -7 -45 -10
-70 -3 -25 -7 -56 -10 -70 -10 -48 -14 -75 -19 -125 -6 -52 -16 -116 -22 -150
-3 -11 -7 -40 -10 -65 -2 -25 -6 -56 -9 -70 -5 -29 -14 -97 -19 -137 -2 -15
-7 -44 -10 -63 -6 -37 -14 -93 -22 -149 -2 -19 -6 -46 -8 -60 -4 -23 -14 -95
-22 -156 -1 -11 -3 -22 -4 -25 -1 -3 -2 -8 -2 -11 1 -4 -4 -35 -10 -70 -5 -35
-11 -73 -13 -84 -2 -21 -18 -137 -20 -145 -2 -8 -19 -134 -19 -145 -1 -5 -8
-10 -16 -10 -13 0 -34 69 -54 175 -2 14 -13 66 -24 115 -12 50 -23 101 -26
115 -6 28 -8 39 -30 131 -8 37 -17 78 -20 90 -2 13 -18 87 -35 164 -18 77 -34
155 -37 174 -3 19 -10 45 -15 58 -5 13 -8 27 -8 31 1 4 0 9 -1 12 -1 3 -3 14
-5 24 -12 66 -3 62 -134 61 l-120 0 -8 -30 c-4 -16 -7 -32 -8 -35 -1 -5 -22
-102 -30 -137 -3 -13 -7 -33 -10 -45 -3 -13 -10 -43 -15 -68 -6 -25 -12 -54
-15 -65 -3 -11 -7 -30 -9 -43 -3 -13 -7 -31 -10 -40 -3 -9 -7 -28 -10 -42 -2
-14 -27 -128 -56 -255 -28 -126 -53 -237 -55 -245 -1 -8 -8 -43 -15 -77 -7
-35 -19 -68 -26 -74 -8 -6 -14 -8 -15 -3 0 5 -2 18 -5 29 -5 27 -22 139 -29
200 -3 28 -8 59 -10 71 -5 21 -10 55 -20 132 -3 20 -7 48 -10 62 -2 14 -7 45
-10 70 -3 25 -7 54 -9 65 -2 11 -7 43 -10 70 -4 28 -14 97 -22 155 -9 58 -18
121 -20 140 -2 19 -6 46 -9 60 -3 14 -7 48 -10 75 -3 28 -8 57 -10 65 -2 8 -7
40 -10 70 -3 30 -8 62 -10 70 -4 13 -11 67 -19 135 -3 25 -17 113 -22 140 -3
11 -6 40 -9 65 -3 25 -7 54 -9 65 -2 11 -7 45 -11 75 -3 30 -8 67 -11 81 -2
14 -6 41 -9 60 -11 80 -4 74 -95 77 l-82 3 5 -43z"/>
</g>
</svg>
